<svg width="35" height="35" viewBox="0 0 35 35" fill="none" xmlns="http://www.w3.org/2000/svg">
<path d="M33.2087 13.826L30.752 13.4092C30.4961 12.583 30.1671 11.7861 29.765 11.0257L31.2127 9.00042C31.8268 8.13766 31.7318 6.96052 30.9787 6.21475L28.7999 4.03593C28.3904 3.62649 27.8494 3.39983 27.2718 3.39983C26.8185 3.39983 26.3871 3.53875 26.0215 3.80196L23.9889 5.24963C23.1993 4.83288 22.3731 4.48924 21.5177 4.23334L21.1082 1.80593C20.9327 0.760393 20.0334 0 18.9733 0H15.8951C14.835 0 13.9357 0.760393 13.7602 1.80593L13.3361 4.29183C12.5172 4.54773 11.7203 4.88406 10.9599 5.2935L8.94924 3.84583C8.58366 3.58262 8.14498 3.4437 7.69166 3.4437C7.11406 3.4437 6.5657 3.67036 6.16357 4.0798L3.97744 6.25862C3.23167 7.00439 3.12931 8.18153 3.74347 9.04429L5.20577 11.0988C4.80363 11.8665 4.48193 12.6635 4.23334 13.4897L1.80593 13.8991C0.760393 14.0746 0 14.9739 0 16.034V19.1122C0 20.1723 0.760393 21.0717 1.80593 21.2471L4.29183 21.6712C4.54773 22.4901 4.88406 23.287 5.2935 24.0474L3.85314 26.0508C3.23898 26.9135 3.33403 28.0907 4.08711 28.8364L6.26593 31.0152C6.67537 31.4247 7.21642 31.6513 7.79403 31.6513C8.24734 31.6513 8.67871 31.5124 9.04429 31.2492L11.0988 29.7869C11.8373 30.1744 12.6123 30.4888 13.4092 30.7374L13.8187 33.1941C13.9942 34.2396 14.8935 35 15.9536 35H19.0391C20.0992 35 20.9985 34.2396 21.174 33.1941L21.5908 30.7374C22.417 30.4815 23.2139 30.1525 23.9743 29.7504L25.9996 31.198C26.3652 31.4612 26.8038 31.6002 27.2572 31.6002C27.8348 31.6002 28.3758 31.3735 28.7853 30.9641L30.9641 28.7852C31.7098 28.0395 31.8122 26.8623 31.198 25.9996L29.7504 23.967C30.1525 23.1993 30.4888 22.4023 30.7374 21.5835L33.1941 21.174C34.2396 20.9985 35 20.0992 35 19.0391V15.9609C35.0146 14.9008 34.2542 14.0015 33.2087 13.826ZM33.0405 19.0391C33.0405 19.1341 32.9747 19.2145 32.8797 19.2292L29.8089 19.741C29.4214 19.8068 29.1143 20.0919 29.0192 20.4648C28.7414 21.5396 28.3173 22.5705 27.747 23.5283C27.5496 23.8646 27.5642 24.2814 27.7909 24.6031L29.5968 27.1475C29.648 27.2206 29.6407 27.3303 29.5749 27.3961L27.3961 29.5749C27.3449 29.6261 27.2937 29.6334 27.2572 29.6334C27.2133 29.6334 27.1767 29.6188 27.1475 29.5968L24.6104 27.7909C24.296 27.5642 23.8719 27.5496 23.5356 27.747C22.5778 28.3173 21.5469 28.7414 20.4721 29.0192C20.0919 29.1143 19.8068 29.4287 19.7483 29.8089L19.2292 32.8797C19.2145 32.9747 19.1341 33.0405 19.0391 33.0405H15.9609C15.8659 33.0405 15.7855 32.9747 15.7708 32.8797L15.259 29.8089C15.1932 29.4213 14.9081 29.1143 14.5352 29.0192C13.4897 28.7487 12.4807 28.3319 11.5375 27.7909C11.384 27.7032 11.2085 27.6593 11.0403 27.6593C10.8429 27.6593 10.6382 27.7178 10.47 27.8421L7.91101 29.6626C7.87445 29.6846 7.83789 29.6992 7.80134 29.6992C7.77209 29.6992 7.7136 29.6919 7.66242 29.6407L5.4836 27.4619C5.4178 27.3961 5.41049 27.2937 5.46167 27.2133L7.26029 24.6908C7.48694 24.3691 7.50157 23.9451 7.30416 23.6087C6.73386 22.6582 6.29517 21.6273 6.01734 20.5525C5.91498 20.1797 5.6079 19.8945 5.2277 19.8287L2.13495 19.3023C2.0399 19.2877 1.9741 19.2072 1.9741 19.1122V16.034C1.9741 15.939 2.0399 15.8586 2.13495 15.844L5.18383 15.3321C5.57134 15.2663 5.88573 14.9812 5.98078 14.601C6.25131 13.5262 6.66806 12.488 7.23104 11.5302C7.42845 11.1939 7.40652 10.7771 7.17986 10.4627L5.35931 7.9037C5.30813 7.83058 5.31544 7.72091 5.38124 7.65511L7.56006 5.47629C7.61124 5.42511 7.66242 5.4178 7.69898 5.4178C7.74285 5.4178 7.7794 5.43242 7.80865 5.45436L10.3311 7.25298C10.6528 7.47963 11.0769 7.49426 11.4132 7.29685C12.3637 6.72655 13.3946 6.28786 14.4694 6.01003C14.8423 5.90767 15.1274 5.60058 15.1932 5.22039L15.7197 2.12764C15.7343 2.03259 15.8147 1.96679 15.9098 1.96679H18.9879C19.0829 1.96679 19.1634 2.03259 19.178 2.12764L19.6898 5.17652C19.7556 5.56403 20.0407 5.87842 20.4209 5.97347C21.525 6.25131 22.5778 6.68268 23.5576 7.26029C23.8939 7.4577 24.3106 7.44307 24.6323 7.21642L27.1548 5.40318C27.1914 5.38124 27.2279 5.36662 27.2645 5.36662C27.2937 5.36662 27.3522 5.37393 27.4034 5.42511L29.5822 7.60393C29.648 7.66973 29.6553 7.77209 29.6041 7.85252L27.7982 10.3896C27.5715 10.704 27.5569 11.1281 27.7543 11.4644C28.3246 12.4222 28.7487 13.4531 29.0265 14.5279C29.1216 14.9081 29.436 15.1932 29.8162 15.2517L32.887 15.7708C32.982 15.7855 33.0478 15.8659 33.0478 15.9609V19.0391H33.0405Z" fill="#FAFAFA"/>
<path d="M17.5037 9.94354C13.3361 9.94354 9.95093 13.3288 9.95093 17.4963C9.95093 21.6638 13.3361 25.049 17.5037 25.049C21.6712 25.049 25.0564 21.6638 25.0564 17.4963C25.0564 13.3288 21.6712 9.94354 17.5037 9.94354ZM17.5037 23.0749C14.4255 23.0749 11.925 20.5744 11.925 17.4963C11.925 14.4182 14.4255 11.9176 17.5037 11.9176C20.5818 11.9176 23.0823 14.4182 23.0823 17.4963C23.0823 20.5744 20.5818 23.0749 17.5037 23.0749Z" fill="#FAFAFA"/>
</svg>
